<svg width="1em" height="1em" style="flex:none;line-height:1" version="1.1" viewBox="0 0 24 24" xmlns="http://www.w3.org/2000/svg">
 <title>Meta</title>
 <path d="m6.873 4c-1.923 0.01-3.6265 1.2579-4.8535 3.1699l-0.011719 0.017578c-0.808 1.26-1.4104 2.8076-1.7344 4.4766l-0.003906 0.02149c-0.17675 0.91672-0.26729 1.8495-0.26953 2.7832-3.1247e-6 0.0013 2.7838e-6 0.0026 0 0.0039v0.02153a8.89 8.89 0 0 0 0.14453 1.6328h-0.001953l0.003906 0.01758v2e-3c0.19188 1.0094 0.568 1.8495 1.1055 2.4863v2e-3l0.013672 0.01367 0.00195 2e-3c0.74389 0.86749 1.7909 1.3494 3.0879 1.3494 1.963 0 3.3748-0.92808 5.8848-5.3301l1.7637-3.127c0.25674 0.41534 0.51553 0.83647 0.80078 1.3184l0.17383 0.29492v2e-3l0.01172 0.01953 0.99024 1.668c0.959 1.61 1.7392 2.773 2.4922 3.584v2e-3l0.01563 0.01367v2e-3c0.637 0.682 1.2465 1.1059 1.9375 1.3379l2e-3 -0.0039c0.44236 0.14761 0.91158 0.21484 1.4355 0.21484 0.48274 0 0.92722-0.07025 1.3301-0.20703 0.0027-9.13e-4 0.0051-3e-3 0.0078-0.0039 5e-3 -0.0017 0.01061-0.0022 0.01563-0.0039v-2e-3a3.493 3.493 0 0 0 0.41602-0.17188 3.558 3.558 0 0 0 1.3652-1.2188l0.04297-0.0625 2e-3 -2e-3 0.01172-0.01758v-2e-3c0.61932-0.95991 0.94522-2.292 0.94522-3.9082 0-0.083 4.7e-5 -0.16409-2e-3 -0.24609v-0.02543c-0.06-3.467-1.2705-6.5665-3.0645-8.3965l-0.01563-0.015625c-1.0649-1.08-2.3353-1.7129-3.6933-1.7129-1.432 0-2.6367 0.78636-3.7227 1.9434v0.00195l-0.01563 0.015625v0.00195c-0.39966 0.42965-0.78644 0.90654-1.1602 1.4141-1.913-2.444-3.5137-3.377-5.4297-3.377zm10.188 2.0625c0.826 0 1.5995 0.39117 2.2695 1.0762l0.01563 0.013672v0.00195c1.3495 1.3922 2.2754 3.9785 2.3594 6.9688v0.02543c4e-3 0.14 0.0078 0.28183 0.0078 0.42383 0 0.81372-0.12097 1.4734-0.36719 1.9492l-2e-3 -2e-3 -0.01172 0.01953c-0.21044 0.39532-0.50814 0.66126-0.89648 0.78125-0.0026 7.99e-4 -0.0052 0.0012-0.0078 2e-3 -0.16463 0.04846-0.33454 0.07228-0.50781 0.07031-0.262 0-0.49275-0.03767-0.71875-0.13867-0.28334-0.12692-0.56005-0.35212-0.87891-0.7207v-2e-3a2.353 2.353 0 0 1-0.01367-0.01367 2.353 2.353 0 0 1 0-2e-3c-0.55-0.642-1.2317-1.7134-2.3027-3.4414l-1.3945-2.334-2e-3 -2e-3 -0.0039-0.0078-0.0059-0.0098a48.763 48.763 0 0 0-1.0975-1.7147c0.47965-0.74235 0.92651-1.343 1.3652-1.8047l0.01758-0.015625v-0.00195c0.715-0.747 1.4078-1.1211 2.1758-1.1211zm-10.219 0.55273h0.021484c1.2551 0 2.3091 0.73292 3.916 3.0391-1.528 2.35-2.4531 3.8242-2.4531 3.8242-2.035 3.2-2.7391 3.918-3.8711 3.918a1.545 1.545 0 0 1-1.1855-0.50781c-0.28346-0.30995-0.48302-0.75486-0.58789-1.3262v-0.0039a4.106 4.106 0 0 1-0.00391-0.01758 4.106 4.106 0 0 1 0-0.0039 5.462 5.462 0 0 1-0.080078-0.80859v-0.02343a12.591 12.591 0 0 1 0-0.0039 12.591 12.591 0 0 1 0.21094-2.4355l-0.00195-2e-3c0.27-1.467 0.78703-2.8268 1.457-3.8438v-0.00195l0.00586-0.00977 0.00391-0.00586 0.00195-0.00195c0.71751-1.0822 1.6091-1.7732 2.5664-1.7851zm5.5215 0.8125c0.35454 0.45558 0.71966 0.96204 1.0996 1.5254a28.01 28.01 0 0 0-1.0996-1.5254zm-1.5684 2.25c0.35038 0.504 0.73329 1.0973 1.1445 1.7598a41.283 41.283 0 0 0-1.1445-1.7598z" fill="none" stroke="#006fb0"/>
</svg>
